<?xml version="1.0" standalone="no"?>
<svg viewBox="0 0 200 200" xmlns="http://www.w3.org/2000/svg">
  <path fill="#FBBF24" d="M46.4,-61.3C57.5,-55.8,62,-38.7,61.9,-23.7C61.8,-8.7,57.2,4.2,52.4,16.4C47.6,28.7,42.7,40.3,33.9,52.6C25.1,64.9,12.6,77.9,1.2,76.2C-10.2,74.6,-20.4,58.4,-30.3,46.5C-40.1,34.5,-49.6,26.9,-57.6,15.6C-65.6,4.3,-72.2,-10.7,-71,-25.8C-69.9,-41,-61.1,-56.5,-47.9,-61.3C-34.8,-66.1,-17.4,-60.2,0.1,-60.4C17.7,-60.6,35.3,-66.7,46.4,-61.3Z" transform="translate(100 100)" />
</svg>
