<svg width="113" height="92" viewBox="0 0 113 92" fill="none" xmlns="http://www.w3.org/2000/svg">
<path d="M59.7781 30.8172V28.7865V9.64932C59.7781 7.73918 61.3254 6.18613 63.2397 6.18613H108.301C110.213 6.18613 111.762 7.73892 111.762 9.64923V9.64932V50.501C111.762 52.412 110.213 53.9627 108.301 53.9627H94.7741L102.007 86.8052C102.007 86.8055 102.007 86.8058 102.008 86.8062L102.008 86.8064L101.275 86.9677C101.611 88.4816 100.655 89.9785 99.1398 90.3124L59.7781 30.8172ZM59.7781 30.8172L61.098 29.274L63.0586 26.9817L63.0589 26.9813C63.8742 26.0269 64.9517 25.4339 66.1093 25.1847L66.7015 25.0572V24.4515V13.1115M59.7781 30.8172L66.7015 13.1115M66.7015 13.1115H104.839V47.0387H66.7017V41.8583V39.8273L65.3817 41.3708L64.1611 42.7982C64.161 42.7983 64.1608 42.7984 64.1607 42.7986C63.2215 43.8943 61.8951 44.5754 60.4583 44.7097L59.7781 44.7732V45.4564V50.501C59.7781 52.4117 61.3259 53.9627 63.2397 53.9627H76.941L69.7068 86.8064L69.7068 86.8065C69.2847 88.7249 70.4972 90.6218 72.4163 91.0449L72.4168 91.045C74.319 91.4629 76.2315 90.2578 76.651 88.3373C76.6511 88.337 76.6512 88.3367 76.6512 88.3365L84.2218 53.9628H87.4927L95.0635 88.3379L95.0635 88.338C95.4294 89.9976 96.9006 91.1288 98.5332 91.1272L66.7015 13.1115Z" stroke="#5C5C5C" stroke-width="1.5"/>
<path d="M86.7651 22.7764C86.5513 22.2378 85.9454 21.9733 85.4071 22.1865L69.4311 27.8254C67.9648 26.6902 65.8494 26.893 64.6267 28.3151L59.5573 34.2351L55.0623 30.382C55.0919 30.7002 55.1593 31.0094 55.1593 31.3359V39.7005L57.6601 41.8433C59.1442 43.1143 61.3642 42.9179 62.6051 41.4626L68.6402 34.4054L73.5074 31.558L86.3166 24.0636C86.7595 23.8083 86.9558 23.2627 86.7651 22.7764Z" fill="#5C5C5C"/>
<path d="M45.2929 24.2773H42.2823C39.9772 24.2773 37.9503 25.3976 36.6619 27.1053L27.4207 35.6135C25.9808 36.8961 25.8502 39.1179 27.1468 40.5665L34.6864 48.982C35.9718 50.4212 38.1969 50.5485 39.6366 49.2549C41.0802 47.9612 41.2021 45.7453 39.9086 44.3035L34.7117 38.5002L42.0933 31.8949L37.7942 37.7358L41.9996 42.4311C44.3234 45.0279 44.1043 49.0178 41.5087 51.3434C39.7366 52.9321 37.3182 53.3048 35.2216 52.5721C35.2216 52.5721 35.2542 68.795 35.2542 86.1687C35.2542 88.4925 37.1377 90.3762 39.4617 90.3762C41.7833 90.3762 43.6692 88.4925 43.6692 86.1687C43.6692 68.8004 43.6692 78.7117 43.6692 61.0926H46.4757C46.4757 78.6989 46.4757 68.795 46.4757 86.1687C46.4757 87.3819 46.1375 88.5053 45.5981 89.4997C46.3041 90.0427 47.1826 90.3762 48.1401 90.3762C50.4653 90.3762 52.3489 88.4925 52.3489 86.1687C52.3489 68.8004 52.3542 76.0813 52.3542 31.3365C52.3546 27.4377 49.194 24.2773 45.2929 24.2773Z" fill="#5C5C5C"/>
<path d="M40.0412 21.7526C41.1662 22.3373 42.4293 22.7002 43.7861 22.7002C45.1463 22.7002 46.4094 22.3373 47.5377 21.7515C50.1712 20.3871 51.9865 17.6708 51.9865 14.5005C51.9865 9.97173 48.3151 6.30154 43.7859 6.30154C39.2575 6.30154 35.5869 9.97173 35.5869 14.5005C35.5871 17.6726 37.4043 20.3899 40.0412 21.7526Z" fill="#5C5C5C"/>
<circle cx="43.977" cy="43.9055" r="43.2016" fill="url(#paint0_linear_1_416)" style="mix-blend-mode:multiply"/>
<defs>
<linearGradient id="paint0_linear_1_416" x1="86.0553" y1="2.79345" x2="-10.9485" y2="31.3845" gradientUnits="userSpaceOnUse">
<stop stop-color="#FFC000"/>
<stop offset="1" stop-color="#FF8A00"/>
</linearGradient>
</defs>
</svg>
