<svg width="112" height="99" viewBox="0 0 112 99" fill="none" xmlns="http://www.w3.org/2000/svg">
<path d="M53.0083 85.225H55.6045V87.8559H53.0083V85.225Z" fill="#5C5C5C"/>
<path d="M53.0083 90.4875H55.6045V93.1184H53.0083V90.4875Z" fill="#5C5C5C"/>
<path d="M93.2526 58.9174C88.9571 58.9174 85.4639 62.4572 85.4639 66.81C85.4639 71.1628 88.9571 74.7026 93.2526 74.7026C97.5481 74.7026 101.041 71.1628 101.041 66.81C101.041 62.4572 97.5481 58.9174 93.2526 58.9174ZM93.2526 72.0717C90.389 72.0717 88.0601 69.7118 88.0601 66.81C88.0601 63.9081 90.389 61.5483 93.2526 61.5483C96.1163 61.5483 98.4451 63.9081 98.4451 66.81C98.4451 69.7118 96.1163 72.0717 93.2526 72.0717Z" fill="#5C5C5C"/>
<path d="M111.423 16.8235H41.3244V43.1321C39.8926 43.1321 38.7282 44.3121 38.7282 45.763H37.4301C35.283 45.763 33.5357 47.5336 33.5357 49.7093V56.7271C31.7599 57.986 30.9395 61.6061 30.9395 62.8636C30.9395 65.0394 32.6867 66.8099 34.8338 66.8099C36.9809 66.8099 38.7282 65.0394 38.7282 62.8636C38.7282 61.6061 37.9078 57.986 36.132 56.7271V49.7093C36.132 48.9845 36.7148 48.3939 37.4301 48.3939H38.7282C38.7282 49.8448 39.8926 51.0247 41.3244 51.0247V55.8616L42.1397 56.1918C42.2007 56.2167 42.5888 56.3707 43.1937 56.589C42.8186 57.7611 42.6226 58.9792 42.6226 60.2328C42.6226 64.4829 44.8515 68.2056 48.1798 70.2945C38.2622 73.0319 30.9395 82.2136 30.9395 93.1186V98.3803H77.6719V93.1186C77.6719 82.2136 70.3492 73.0319 60.4315 70.2945C60.8482 70.0327 61.252 69.7526 61.6323 69.4408H80.5291C81.2833 73.1898 83.6212 76.3547 86.7952 78.2068L85.253 93.8289L93.2494 90.589L101.245 93.8289L99.7024 78.2068C102.876 76.3534 105.214 73.1898 105.968 69.4408H111.423V16.8235ZM34.8338 64.1791C34.1186 64.1791 33.5357 63.5884 33.5357 62.8636C33.5357 61.7771 34.2769 59.6592 34.8338 59.0278C35.3907 59.6579 36.132 61.7771 36.132 62.8636C36.132 63.5884 35.5491 64.1791 34.8338 64.1791ZM41.3231 45.763H41.3244H67.2869V48.3939H41.3244L41.3231 45.763ZM64.6907 51.0247V54.0581C62.8292 54.7343 58.1391 56.2865 54.3057 56.2865C50.4723 56.2865 45.7822 54.7343 43.9207 54.0581V51.0247H64.6907ZM54.3057 79.5262L58.422 85.0879L62.0944 77.6451V95.7494H46.5169V77.6451L50.1893 85.0879L54.3057 79.5262ZM67.2869 95.7494H64.6907V74.9196C65.6007 75.455 66.4704 76.0508 67.2869 76.7151V95.7494ZM61.03 73.2253C61.1273 73.2595 61.2221 73.2976 61.3195 73.3332L57.9794 80.1037L56.075 77.5307L61.03 73.2253ZM41.3244 76.7151C42.141 76.0508 43.0107 75.455 43.9207 74.9196V95.7494H41.3244V76.7151ZM50.6333 80.1024L47.2932 73.3318C47.3893 73.2963 47.4853 73.2582 47.5827 73.224L52.5376 77.5281L50.6333 80.1024ZM33.5357 93.1186C33.5357 87.8016 35.5076 82.9529 38.7282 79.2447V95.7494H33.5357V93.1186ZM75.0757 93.1186V95.7494H69.8832V79.2447C73.1038 82.9529 75.0757 87.8016 75.0757 93.1186ZM57.9677 72.4202L54.3057 75.601L50.6437 72.4202C51.8341 72.2032 53.0543 72.0717 54.3057 72.0717C55.5571 72.0717 56.7773 72.2032 57.9677 72.4202ZM54.3057 69.4408C49.2949 69.4408 45.2188 65.3103 45.2188 60.2328C45.2188 59.2593 45.372 58.3135 45.6615 57.4046C48.076 58.1333 51.3577 58.9173 54.3057 58.9173C57.2537 58.9173 60.5354 58.1333 62.9499 57.4059C63.2394 58.3135 63.3926 59.2593 63.3926 60.2328C63.3926 65.3103 59.3165 69.4408 54.3057 69.4408ZM98.2355 89.7761L93.2494 87.7556L88.2633 89.7774L89.294 79.3355C90.5415 79.7406 91.8695 79.9643 93.2494 79.9643C94.6293 79.9643 95.9573 79.7406 97.2048 79.3355L98.2355 89.7761ZM93.2494 77.3334C87.5234 77.3334 82.8644 72.6123 82.8644 66.8099C82.8644 61.0076 87.5234 56.2865 93.2494 56.2865C98.9755 56.2865 103.634 61.0076 103.634 66.8099C103.634 72.6123 98.9755 77.3334 93.2494 77.3334ZM108.827 66.8099H106.231C106.231 59.5566 100.407 53.6556 93.2494 53.6556C86.0916 53.6556 80.2682 59.5566 80.2682 66.8099H64.0131C65.2593 64.9275 65.9888 62.665 65.9888 60.2328C65.9888 58.9792 65.7915 57.7598 65.4176 56.5903C66.0226 56.372 66.4094 56.2181 66.4717 56.1931L67.2869 55.8616V51.0247C68.7188 51.0247 69.8832 49.8448 69.8832 48.3939V45.763C69.8832 44.3121 68.7188 43.1321 67.2869 43.1321H43.9207V19.4544H108.827V66.8099Z" fill="#5C5C5C"/>
<path d="M106.232 22.084H46.5186V35.2383H106.232V22.084ZM103.636 32.6075H49.1148V24.7149H103.636V32.6075Z" fill="#5C5C5C"/>
<path d="M46.5186 37.8698H49.1148V40.5007H46.5186V37.8698Z" fill="#5C5C5C"/>
<path d="M51.7122 37.8698H106.233V40.5007H51.7122V37.8698Z" fill="#5C5C5C"/>
<path d="M72.481 43.1316H101.04V45.7624H72.481V43.1316Z" fill="#5C5C5C"/>
<path d="M72.481 48.3932H106.232V51.0241H72.481V48.3932Z" fill="#5C5C5C"/>
<path d="M72.481 53.6549H75.0772V56.2858H72.481V53.6549Z" fill="#5C5C5C"/>
<path d="M77.6748 53.6549H80.2711V56.2858H77.6748V53.6549Z" fill="#5C5C5C"/>
<circle cx="44.0409" cy="43.2016" r="43.2016" fill="url(#paint0_linear_1_345)" style="mix-blend-mode:multiply"/>
<defs>
<linearGradient id="paint0_linear_1_345" x1="86.1193" y1="2.08955" x2="-10.8845" y2="30.6806" gradientUnits="userSpaceOnUse">
<stop stop-color="#FFC000"/>
<stop offset="1" stop-color="#FF8A00"/>
</linearGradient>
</defs>
</svg>
