<svg width="122" height="88" viewBox="0 0 122 88" fill="none" xmlns="http://www.w3.org/2000/svg">
<path d="M116.679 41.7223V9.05559C116.679 4.96186 113.348 1.63133 109.255 1.63133H43.9211C39.8273 1.63133 36.4968 4.96186 36.4968 9.05559V31.3284C34.0408 31.3284 32.0422 33.327 32.0422 35.7829V80.3285C32.0422 82.7844 34.0408 84.783 36.4968 84.783H69.1635C71.6195 84.783 73.6181 82.7844 73.6181 80.3285H86.0626C87.4629 80.3285 88.7532 79.69 89.6025 78.5778C90.4519 77.4657 90.7281 76.0521 90.3598 74.7024L87.4406 63.9951H95.8909V80.3285C95.8909 82.7844 97.8895 84.783 100.345 84.783H116.679C119.135 84.783 121.133 82.7844 121.133 80.3285V46.1769C121.133 43.7209 119.135 41.7223 116.679 41.7223ZM70.6484 80.3285C70.6484 81.1466 69.9817 81.8133 69.1635 81.8133H36.4968C35.6786 81.8133 35.0119 81.1466 35.0119 80.3285V77.3588H70.6484V80.3285ZM70.6484 74.3891H35.0119V41.7223H70.6484V74.3891ZM70.6484 38.7526H35.0119V35.7829C35.0119 34.9648 35.6786 34.2981 36.4968 34.2981H69.1635C69.9817 34.2981 70.6484 34.9648 70.6484 35.7829V38.7526ZM87.4955 75.4834C87.6188 75.9333 87.5267 76.404 87.2431 76.7752C86.9595 77.1464 86.5304 77.3588 86.0626 77.3588H73.6181V74.3891H87.1971L87.4955 75.4834ZM73.6181 71.4194V63.9951H84.3625L86.3878 71.4194H73.6181ZM95.8909 61.0254H73.6181V52.1163H95.8909V61.0254ZM95.8909 46.1769V49.1466H73.6181V35.7829C73.6181 33.327 71.6195 31.3284 69.1635 31.3284H39.4665V9.05559C39.4665 6.59965 41.4651 4.60104 43.9211 4.60104H109.255C111.711 4.60104 113.709 6.59965 113.709 9.05559V41.7223H100.345C97.8895 41.7223 95.8909 43.7209 95.8909 46.1769ZM118.164 80.3285C118.164 81.1466 117.497 81.8133 116.679 81.8133H100.345C99.5273 81.8133 98.8606 81.1466 98.8606 80.3285V77.3588H118.164V80.3285ZM118.164 74.3891H98.8606V52.1163H118.164V74.3891ZM118.164 49.1466H98.8606V46.1769C98.8606 45.3587 99.5273 44.692 100.345 44.692H116.679C117.497 44.692 118.164 45.3587 118.164 46.1769V49.1466Z" fill="#5C5C5C"/>
<circle cx="44.1667" cy="44.0331" r="43.2016" fill="url(#paint0_linear_1_399)" style="mix-blend-mode:multiply"/>
<defs>
<linearGradient id="paint0_linear_1_399" x1="86.245" y1="2.92111" x2="-10.7588" y2="31.5122" gradientUnits="userSpaceOnUse">
<stop stop-color="#FFC000"/>
<stop offset="1" stop-color="#FF8A00"/>
</linearGradient>
</defs>
</svg>
