<svg xmlns:mydata="http://www.w3.org/2000/svg" xmlns="http://www.w3.org/2000/svg" viewBox="125 80 300 300">
    <g data-paper-data="{&quot;isGlobalGroup&quot;:true,&quot;bounds&quot;:{&quot;x&quot;:146,&quot;y&quot;:106,&quot;width&quot;:258,&quot;height&quot;:258}}"
        fill="#f59e0b" fill-rule="none" stroke-miterlimit="10" font-family="none" font-weight="none" font-size="none"
        text-anchor="none" style="mix-blend-mode:normal">
        <g data-paper-data="{&quot;isIcon&quot;:&quot;true&quot;,&quot;iconType&quot;:&quot;icon&quot;,&quot;rawIconId&quot;:&quot;dcf21eb1-c6eb-4808-8db6-a3597e24cdc9&quot;,&quot;selectedEffects&quot;:{&quot;container&quot;:&quot;enclosed_circle_outline3&quot;,&quot;transformation&quot;:&quot;&quot;,&quot;pattern&quot;:&quot;&quot;},&quot;isDetailed&quot;:false,&quot;fillRule&quot;:&quot;nonzero&quot;,&quot;blockLetter&quot;:&quot;O&quot;,&quot;blockLetterId&quot;:0,&quot;relativeBoundsIconToContainer&quot;:{&quot;top&quot;:-0.016126375436515766,&quot;left&quot;:0.05411874139208365},&quot;widthRatioIconToContainer&quot;:0.8561659586736127,&quot;heightRatioIconToContainer&quot;:0.9677472491269684,&quot;bounds&quot;:{&quot;x&quot;:201.36860542243596,&quot;y&quot;:166.0229873144847,&quot;width&quot;:147.26277235677168,&quot;height&quot;:142.60840726307933},&quot;iconStyle&quot;:&quot;standalone&quot;,&quot;suitableAsStandaloneIcon&quot;:true}"
            fill-rule="nonzero">
            <path
                d="M244.256 259.287c4.919-.405 22.507-.607 52.899-.607 11.927 0 22.035-4.245 30.459-12.803 8.423-8.491 12.668-18.734 12.668-30.661 0-10.782-3.504-20.217-10.445-28.37-6.94-8.02-15.566-12.871-25.944-14.556 7.009 4.717 11.524 11.052 13.545 19.07 1.954 7.75 1.078 15.028-2.628 21.767q-5.862 10.815-18.599 11.725l-48.249.067c-5.93 0-10.512.607-13.747 1.887-5.054 1.954-7.884 5.66-8.626 11.052v30.66c3.505-5.458 9.704-8.49 18.667-9.231m26.55-47.778v7.75l12.871-.068h12.804c1.415 0 2.493-.404 3.302-1.213a3.78 3.78 0 0 0 1.01-2.628c0-1.01-.404-1.954-1.145-2.695s-1.617-1.146-2.696-1.146zm26.349-45.486c13.41 0 24.933 4.784 34.502 14.42q14.353 14.456 14.353 34.773c0 13.544-4.784 25.068-14.353 34.704-9.57 9.636-21.092 14.42-34.502 14.42h-29.179v15.635q0 9.906-7.076 16.981c-4.65 4.717-10.31 7.076-16.914 7.076-6.402 0-11.927-2.224-16.577-6.739q-6.975-6.772-7.278-16.375-.202-.506-.202-90.77v-.068c0-6.402 2.224-11.995 6.739-16.644 4.515-4.718 9.973-7.21 16.375-7.413zM348.63 235q0 14.978-5.787 28.662-5.59 13.214-15.779 23.404-10.19 10.188-23.403 15.778-13.685 5.787-28.662 5.787-10.236 0-19.869-2.703l.022-.01 1.25-.585.23-.117 1.21-.661.219-.128 1.168-.735.204-.137 1.122-.803.189-.143 1.074-.866.04-.033A68.3 68.3 0 0 0 275 302.968q13.83 0 26.455-5.34 12.197-5.16 21.605-14.568t14.568-21.605a67 67 0 0 0 4.897-18.595l.306-.492.063-.104.694-1.192.06-.107.66-1.212.057-.11.623-1.232.055-.112.584-1.25.052-.115.547-1.266.048-.117.509-1.283.044-.117.469-1.298.04-.119.43-1.311.037-.119.39-1.324.033-.119.182-.693q.223 2.89.223 5.832m-141.475 28.662Q201.37 249.977 201.37 235q0-14.98 5.787-28.661a73 73 0 0 1 8.633-15.134v10.38a68 68 0 0 0-3.416 6.96q-5.34 12.625-5.34 26.455t5.34 26.455a68 68 0 0 0 3.497 7.102l.001.273.006 1.382.006 1.381.007 1.383.008 1.384.01 1.385.01 1.39.014 1.397.007.465a73 73 0 0 1-8.783-15.335"
                data-paper-data="{&quot;isPathIcon&quot;:true}" />
        </g>
        <g data-paper-data="{&quot;isPrimaryText&quot;:true}" fill-rule="nonzero">
            <path
                d="m163.763 222.568 1.924-10.04q.93-4.848 5.874-5.866a8.7 8.7 0 0 1 2.839.056q3.805.73 5.506 4.169.928 1.906.355 4.896l-1.241 6.477 3.588.688-.598 3.117zm3.792-2.505 8.309 1.592 1.368-7.138q.446-2.33-1.54-3.87-.999-.64-1.89-.811-2.468-.474-4.134 1.331-.64.789-.926 2.29l-1.249 6.515q-.001.079.062.09"
                data-paper-data="{&quot;glyphName&quot;:&quot;P&quot;,&quot;glyphIndex&quot;:0,&quot;firstGlyphOfWord&quot;:true,&quot;word&quot;:1}" />
            <path
                d="m171.147 193.207 4.63-9.316q1.856-3.737 6.219-3.956 1.935.007 3.687.878 2.518 1.251 3.7 3.879l-.011.08a3.04 3.04 0 0 1 1.866.292l3.771 1.874-1.412 2.842-3.644-1.81q-.069-.035-.104.035-.147 1.315-.672 2.371l-3.252 6.544q-.023.075.035.104l3.237 1.609-1.412 2.843zm4.255-1.43 7.646 3.8 3.137-6.312q1.303-2.622-.696-4.715-.58-.549-1.103-.808l-.36-.179q-1.902-.945-3.875.085-1.007.6-1.647 1.887z"
                data-paper-data="{&quot;glyphName&quot;:&quot;R&quot;,&quot;glyphIndex&quot;:1,&quot;word&quot;:1}" />
            <path
                d="m192.105 159.542.052-.057q2.948-3.239 7.757-3.17 3.597.225 6.193 2.589l.029.026q2.769 2.52 3.177 6.537.18 4.422-2.55 7.42-2.835 3.114-7.35 3.225-3.93-.072-6.67-2.567-2.874-2.616-3.216-6.783-.153-4.22 2.578-7.22m2.695 11.513.192.174q2.424 2.207 6.086 1.494 2.01-.59 3.23-1.93l.174-.192q1.448-1.591 1.643-4.076.012-3.284-2.183-5.282-2.47-2.25-6.144-1.546-2.071.602-3.336 1.991-1.755 1.926-1.74 4.74.2 2.917 2.078 4.627"
                data-paper-data="{&quot;glyphName&quot;:&quot;O&quot;,&quot;glyphIndex&quot;:2,&quot;lastGlyphOfWord&quot;:true,&quot;word&quot;:1}" />
            <path
                d="m222.848 135.963 15.596-6.762 1.263 2.912-12.625 5.474q-.06.025-.033.085l4.808 11.09q.026.06.086.034l12.624-5.473 1.262 2.912-15.595 6.762zm6.585 4.7 10.472-4.54 1.279 2.947-10.473 4.54z"
                data-paper-data="{&quot;glyphName&quot;:&quot;E&quot;,&quot;glyphIndex&quot;:3,&quot;firstGlyphOfWord&quot;:true,&quot;word&quot;:2}" />
            <path
                d="m250.986 125.7 8.624-1.197q4.362-.606 7.445 2.654 2.005 2.286 2.427 5.327.619 4.453-2.293 7.88-1.113 1.03-2.071 1.569-1.47.727-3.099.953l-8.482 1.179zm3.577 2.774 1.66 11.948q.022.075.087.066l4.94-.687q2.811-.39 4.02-2.14 1.415-2.054 1.064-4.583l-.03-.218q-.348-2.502-2.11-4.076-1.763-1.482-4.406-1.114l-5.16.716q-.075.024-.065.088"
                data-paper-data="{&quot;glyphName&quot;:&quot;D&quot;,&quot;glyphIndex&quot;:4,&quot;word&quot;:2}" />
            <path
                d="m281.003 123.234 3.158.434-1.515 11.013q-.476 3.466 3.61 5.23.964.316 1.606.405l.333.045q2.773.382 4.92-1.063 1.206-1.063 1.378-1.746.27-.538.457-1.899l1.417-10.306 3.158.434-1.483 10.782q-.771 5.609-6.783 6.914-1.938.296-3.619.065-4.119-.567-6.63-3.527-1.951-2.636-1.556-5.511z"
                data-paper-data="{&quot;glyphName&quot;:&quot;U&quot;,&quot;glyphIndex&quot;:5,&quot;lastGlyphOfWord&quot;:true,&quot;word&quot;:2}" />
            <path
                d="m327.154 135.963 14.392 9.046-1.69 2.688-11.649-7.322q-.054-.035-.089.02l-6.433 10.235q-.034.054.02.089l11.65 7.322-1.689 2.687-14.392-9.045zm-.156 8.09 9.664 6.073-1.71 2.72-9.664-6.073z"
                data-paper-data="{&quot;glyphName&quot;:&quot;E&quot;,&quot;glyphIndex&quot;:6,&quot;firstGlyphOfWord&quot;:true,&quot;word&quot;:3}" />
            <path
                d="m351.516 153.36 5.873 6.428q2.971 3.252 2.032 7.639-.748 2.946-3.014 5.018-3.32 3.033-7.792 2.575-1.48-.333-2.467-.817a10 10 0 0 1-2.541-2.013l-5.778-6.322zm-.259 4.52-8.904 8.137q-.048.062-.005.11l3.365 3.682q1.914 2.094 4.042 2.098 2.494.003 4.378-1.72l.163-.148q1.865-1.704 2.163-4.048.222-2.291-1.578-4.262l-3.514-3.845q-.062-.048-.11-.005"
                data-paper-data="{&quot;glyphName&quot;:&quot;D&quot;,&quot;glyphIndex&quot;:7,&quot;word&quot;:3}" />
            <path
                d="m375.218 184.729.099.197q2.074 4.132-.067 8.877-1.226 2.093-2.37 2.958.029.06-.273.21l-1.476-2.942q1.914-1.932 1.974-4.644a6.7 6.7 0 0 0-.707-3.168q-1.29-2.57-4.374-3.458-2.445-.57-4.67.547-1.98.993-3.048 3.197-1.23 3.067.097 5.707l.064.128q1.412 2.813 4.832 3.532 1.066.161 1.454.067l-3.546-7.063 2.849-1.43 5.075 10.108-2.745 1.378q-.996.412-3.632.099-2.1-.455-3.264-1.16-2.67-1.618-3.942-4.153-2-3.984-.17-8.54 1.628-3.254 4.373-4.632l.475-.238q3.67-1.843 8.198-.13 2.604 1.29 3.899 3.117.54.73.895 1.436"
                data-paper-data="{&quot;glyphName&quot;:&quot;G&quot;,&quot;glyphIndex&quot;:8,&quot;word&quot;:3}" />
            <path
                d="m383.083 205.91 3.154 16.703-3.12.589-2.552-13.52q-.012-.064-.076-.053l-11.878 2.243q-.064.012-.052.076l2.553 13.52-3.12.59-3.153-16.704zm-6.037 5.385 2.117 11.216-3.157.596-2.117-11.216z"
                data-paper-data="{&quot;glyphName&quot;:&quot;E&quot;,&quot;glyphIndex&quot;:9,&quot;lastGlyphOfWord&quot;:true,&quot;word&quot;:3}" />
        </g>
        <g data-paper-data="{&quot;isSecondaryText&quot;:true}" fill-rule="nonzero">
            <path
                d="m175.172 245.397.085.64-3.546.472q-1.006.135-1.399 1.276a2.9 2.9 0 0 0-.087 1.191l.007.048q.147 1.108.953 1.713.527.36 1.187.272l3.486-.465.085.64-3.486.465q-1.505.2-2.404-1.2a3.4 3.4 0 0 1-.46-1.327l-.01-.073q-.198-1.489.732-2.538.582-.545 1.275-.637z"
                data-paper-data="{&quot;glyphName&quot;:&quot;U&quot;,&quot;glyphIndex&quot;:0,&quot;firstGlyphOfWord&quot;:true,&quot;word&quot;:1}" />
            <path
                d="m177.328 255.33.002.011-4.09 6.299 4.685-1.115.149.624-6.253 1.488 4.086-6.298-.003-.011-4.697 1.117-.148-.624z"
                data-paper-data="{&quot;glyphName&quot;:&quot;N&quot;,&quot;glyphIndex&quot;:1,&quot;word&quot;:1}" />
            <path d="m179.31 265.332.21.606-4.872 1.69q-.023.012-.015.031l1.586 4.573-.607.21-1.804-5.202z"
                data-paper-data="{&quot;glyphName&quot;:&quot;L&quot;,&quot;glyphIndex&quot;:2,&quot;word&quot;:1}" />
            <path
                d="M183.84 276.448q.494 1.083.114 2.299-.486 1.287-1.646 1.814-1.456.663-2.95-.18-.807-.538-1.155-1.303l-.05-.11q-.557-1.224.07-2.633.424-.702.562-.764.36-.404.959-.677 1.065-.484 2.293-.097 1.275.49 1.804 1.65m-3.873-.946q-1.017.462-1.363 1.672-.17.853.142 1.537l.04.089q.375.825 1.317 1.23 1.002.369 1.926-.051 1.054-.48 1.38-1.694.175-.842-.156-1.57-.476-1.046-1.694-1.38a2.5 2.5 0 0 0-1.592.167"
                data-paper-data="{&quot;glyphName&quot;:&quot;O&quot;,&quot;glyphIndex&quot;:3,&quot;word&quot;:1}" />
            <path
                d="m188.506 285.462.074.126q.645 1.105.224 2.532-.285.735-.756 1.184l-.33-.564q.006-.045.195-.27.199-.295.338-.79.222-.995-.253-1.808l-.025-.042q-.637-1.091-2.055-1.207-.728.008-1.304.344-.999.585-1.2 1.825-.09.861.312 1.548.57.975 1.819 1.204.435.037.834-.036l.336.575-.01.006q-1.043.267-1.982-.092-1.03-.443-1.55-1.333-.74-1.265-.187-2.774a3.17 3.17 0 0 1 1.313-1.487q1.24-.725 2.69-.208 1.023.422 1.517 1.267"
                data-paper-data="{&quot;glyphName&quot;:&quot;C&quot;,&quot;glyphIndex&quot;:4,&quot;word&quot;:1}" />
            <path
                d="m192.192 291.735.379.518-2.283 1.666.007.01 4.671 1.607.666.912-.01.007q-.3-.117-3.178-1.104-.134-.038-.148-.058l-.01.007-1.527 4.327-.01.007-.45-.616q.015-.09 1.099-3.144.275-.774.27-.78l-2.017-.71-1.784 1.301-.378-.518z"
                data-paper-data="{&quot;glyphName&quot;:&quot;K&quot;,&quot;glyphIndex&quot;:5,&quot;word&quot;:1}" />
            <path d="m198.24 299.671.416.49-4.44 3.768-.414-.49z"
                data-paper-data="{&quot;glyphName&quot;:&quot;I&quot;,&quot;glyphIndex&quot;:6,&quot;word&quot;:1}" />
            <path
                d="m202.035 303.033.009.008-.222 7.507 3.424-3.386.451.456-4.57 4.52.22-7.504-.01-.009-3.432 3.395-.45-.456z"
                data-paper-data="{&quot;glyphName&quot;:&quot;N&quot;,&quot;glyphIndex&quot;:7,&quot;word&quot;:1}" />
            <path
                d="m211.308 312.253.038.031q1.086.897 1.112 2.43-.03.732-.29 1.27l-.527-.434a2.43 2.43 0 0 0-.725-2.783q-.974-.804-2.304-.454-.703.225-1.18.805-.748.905-.463 2.219.255.774.81 1.232.942.777 2.26.464.52-.191.58-.263l-2.314-1.91.408-.495 2.85 2.352-.385.466q-.333.27-1.043.498-1.612.339-2.767-.614-.908-.75-1.104-1.986-.148-1.385.677-2.384.982-1.19 2.625-1.14 1.013.094 1.742.696"
                data-paper-data="{&quot;glyphName&quot;:&quot;G&quot;,&quot;glyphIndex&quot;:8,&quot;lastGlyphOfWord&quot;:true,&quot;word&quot;:1}" />
            <path
                d="m221.42 319.878.698.414q.082.46.397 2.776.041.28.056.288.015-.024 2.969-1.032l.72.427-3.749 1.302-1.424 2.399-.551-.328 1.424-2.399z"
                data-paper-data="{&quot;glyphName&quot;:&quot;Y&quot;,&quot;glyphIndex&quot;:9,&quot;firstGlyphOfWord&quot;:true,&quot;word&quot;:2}" />
            <path
                d="M231.802 325.339q1.073.513 1.563 1.69.454 1.297-.096 2.447-.69 1.443-2.376 1.757-.965.105-1.723-.258l-.11-.053q-1.212-.58-1.637-2.062-.125-.812-.06-.947.017-.542.301-1.135.505-1.055 1.695-1.547 1.293-.443 2.443.108m-3.577 1.762q-.481 1.006.03 2.157.417.763 1.095 1.087l.088.043q.816.39 1.8.096 1.005-.36 1.443-1.276.501-1.044-.03-2.184-.406-.758-1.128-1.103-1.036-.497-2.184.03a2.5 2.5 0 0 0-1.114 1.15"
                data-paper-data="{&quot;glyphName&quot;:&quot;O&quot;,&quot;glyphIndex&quot;:10,&quot;word&quot;:2}" />
            <path
                d="m238.392 328.473.608.218-1.208 3.367q-.342.956.492 1.829.453.42 1.018.624l.046.016q1.052.377 1.959-.06a1.65 1.65 0 0 0 .786-.93l1.188-3.31.607.217-1.187 3.31q-.513 1.43-2.169 1.586-.706.045-1.39-.2l-.069-.026q-1.415-.507-1.92-1.814-.216-.768.02-1.425z"
                data-paper-data="{&quot;glyphName&quot;:&quot;U&quot;,&quot;glyphIndex&quot;:11,&quot;word&quot;:2}" />
            <path
                d="m248.826 331.899 2.23.555q1.237.308 1.617 1.201a2.3 2.3 0 0 1 .153 1.607 2.34 2.34 0 0 1-1.108 1.495q.201.285.086.745l-.266 1.068-.622-.155.277-1.115q.048-.189-.144-.312l-.012-.003q-.418.084-1.076-.08l-2.384-.593-.298 1.198-.623-.155 1.403-5.635q.515.116.767.179m-.303.61-.785 3.157q-.002.024.018.03l2.372.59q1.17.29 1.764-.532.229-.315.314-.658.19-.764-.268-1.427-.3-.41-1.025-.59l-2.36-.587q-.025-.001-.03.018"
                data-paper-data="{&quot;glyphName&quot;:&quot;R&quot;,&quot;glyphIndex&quot;:12,&quot;lastGlyphOfWord&quot;:true,&quot;word&quot;:2}" />
            <path d="m263.173 334.676.639.058-.463 5.136q.002.024.022.026l4.82.434-.057.64-5.484-.495z"
                data-paper-data="{&quot;glyphName&quot;:&quot;L&quot;,&quot;glyphIndex&quot;:13,&quot;firstGlyphOfWord&quot;:true,&quot;word&quot;:3}" />
            <path
                d="m272.942 335.347 5.506-.037.004.641-4.864.033.03 4.54 4.865-.033.004.641-5.505.038zm1.084 2.336 3.979-.027.004.641-3.979.027z"
                data-paper-data="{&quot;glyphName&quot;:&quot;E&quot;,&quot;glyphIndex&quot;:14,&quot;word&quot;:3}" />
            <path
                d="m288.268 334.402.606 5.885-.618.063-.177-1.716-2.605.268q-.052.006-.19.207-.034.033-1.374 1.689l-.864.089-.001-.012q4.215-5.243 5.223-6.473m-2.272 3.818.001.012 2.02-.208-.212-2.052a219 219 0 0 0-1.81 2.248"
                data-paper-data="{&quot;glyphName&quot;:&quot;A&quot;,&quot;glyphIndex&quot;:15,&quot;word&quot;:3}" />
            <path
                d="m293.36 333.673 2.251-.462q1.25-.257 1.978.385.655.524.831 1.383a2.34 2.34 0 0 1-.354 1.827q.304.169.4.635l.222 1.077-.629.13-.231-1.126q-.039-.19-.265-.22l-.012.003q-.34.257-1.005.393l-2.406.495.248 1.21-.628.128-1.17-5.687q.516-.119.77-.17m-.009.682.655 3.186q.008.022.029.019l2.394-.492q1.18-.243 1.361-1.242a1.9 1.9 0 0 0 0-.73 1.69 1.69 0 0 0-.859-1.17q-.446-.24-1.179-.09l-2.382.49q-.023.009-.02.03"
                data-paper-data="{&quot;glyphName&quot;:&quot;R&quot;,&quot;glyphIndex&quot;:16,&quot;word&quot;:3}" />
            <path
                d="m301.847 331.098.011-.003 6.562 3.652-1.43-4.598.612-.19 1.91 6.137-6.561-3.649-.012.004 1.434 4.61-.613.19z"
                data-paper-data="{&quot;glyphName&quot;:&quot;N&quot;,&quot;glyphIndex&quot;:17,&quot;word&quot;:3}" />
            <path d="m311.748 328.417.596-.237 2.15 5.41-.595.238z"
                data-paper-data="{&quot;glyphName&quot;:&quot;I&quot;,&quot;glyphIndex&quot;:18,&quot;word&quot;:3}" />
            <path
                d="m316.145 325.896.01-.005 7.044 2.607-2.116-4.325.576-.282 2.824 5.774-7.04-2.604-.012.005 2.121 4.337-.576.282z"
                data-paper-data="{&quot;glyphName&quot;:&quot;N&quot;,&quot;glyphIndex&quot;:19,&quot;word&quot;:3}" />
            <path
                d="m327.841 320.052.042-.026q1.196-.745 2.656-.28.685.263 1.112.68l-.58.361a2.43 2.43 0 0 0-2.868-.2q-1.073.667-1.166 2.04-.009.737.387 1.375.62.996 1.956 1.146.816.005 1.426-.375 1.038-.645 1.16-1.994-.015-.554-.064-.634l-2.548 1.585-.339-.545 3.138-1.951.32.514q.147.4.139 1.146-.193 1.636-1.465 2.427-1 .623-2.234.414-1.359-.303-2.043-1.402-.816-1.31-.244-2.852.413-.93 1.215-1.43"
                data-paper-data="{&quot;glyphName&quot;:&quot;G&quot;,&quot;glyphIndex&quot;:20,&quot;lastGlyphOfWord&quot;:true,&quot;word&quot;:3}" />
            <path
                d="m338.51 312.725 2.412-2.084q1.224-1.056 2.643-.282.338.23.531.453l.112.13q.637.737.532 1.783a2.14 2.14 0 0 1-.713 1.286l-2.037 1.76.81.937-.486.42zm.905.066 2.155 2.495 2.01-1.736q.72-.621.46-1.616a2 2 0 0 0-.317-.573l-.104-.12q-.456-.528-1.254-.564-.553.043-.996.426z"
                data-paper-data="{&quot;glyphName&quot;:&quot;P&quot;,&quot;glyphIndex&quot;:21,&quot;firstGlyphOfWord&quot;:true,&quot;word&quot;:4}" />
            <path
                d="M347.582 303.966q.82-.861 2.09-.966 1.374-.03 2.299.847 1.159 1.103.938 2.803-.197.95-.777 1.559l-.084.088q-.926.974-2.467.92-.81-.131-.919-.235a2.8 2.8 0 0 1-.987-.635q-.846-.806-.948-2.09-.023-1.367.855-2.29m.574 3.946q.81.77 2.06.638.855-.162 1.373-.707l.067-.07q.624-.657.647-1.682-.033-1.068-.768-1.767-.84-.798-2.087-.646-.847.153-1.398.733-.792.833-.645 2.087.145.838.75 1.415"
                data-paper-data="{&quot;glyphName&quot;:&quot;O&quot;,&quot;glyphIndex&quot;:22,&quot;word&quot;:4}" />
            <path d="m352.156 299.212 3.267-4.136.513.406-1.43 1.81 4.05 3.198-.405.513-4.05-3.199-1.432 1.814z"
                data-paper-data="{&quot;glyphName&quot;:&quot;T&quot;,&quot;glyphIndex&quot;:23,&quot;word&quot;:4}" />
            <path
                d="m357.845 291.68 2.986-4.626.54.348-2.64 4.087 3.815 2.462 2.638-4.087.539.348-2.986 4.626zm2.547.374 2.159-3.343.539.347-2.159 3.344z"
                data-paper-data="{&quot;glyphName&quot;:&quot;E&quot;,&quot;glyphIndex&quot;:24,&quot;word&quot;:4}" />
            <path
                d="m362.433 283.07.006-.01 7.201-2.13-4.285-2.198.293-.57 5.72 2.932-7.199 2.132-.005.01 4.296 2.203-.293.57z"
                data-paper-data="{&quot;glyphName&quot;:&quot;N&quot;,&quot;glyphIndex&quot;:25,&quot;word&quot;:4}" />
            <path d="m367.357 274.362 1.937-4.902.608.24-.848 2.145 4.8 1.897-.24.608-4.8-1.897-.85 2.149z"
                data-paper-data="{&quot;glyphName&quot;:&quot;T&quot;,&quot;glyphIndex&quot;:26,&quot;word&quot;:4}" />
            <path d="m370.652 265.452.192-.612 5.555 1.744-.192.612z"
                data-paper-data="{&quot;glyphName&quot;:&quot;I&quot;,&quot;glyphIndex&quot;:27,&quot;word&quot;:4}" />
            <path
                d="m373.24 255.13 5.76 1.351-.143.605-1.68-.394-.598 2.55q-.012.051.134.248.02.041 1.147 1.85l-.199.846-.012-.003q-3.576-5.698-4.41-7.053m2.865 3.396.012.002.463-1.976-2.008-.471a219 219 0 0 0 1.533 2.445"
                data-paper-data="{&quot;glyphName&quot;:&quot;A&quot;,&quot;glyphIndex&quot;:28,&quot;word&quot;:4}" />
            <path d="m374.11 250.859.083-.636 5.113.673q.024-.002.027-.021l.632-4.799.636.084-.719 5.459z"
                data-paper-data="{&quot;glyphName&quot;:&quot;L&quot;,&quot;glyphIndex&quot;:29,&quot;lastGlyphOfWord&quot;:true,&quot;word&quot;:4}" />
        </g>
        <g data-paper-data="{&quot;isContainerElementsWrapper&quot;:true}" fill-rule="evenodd">
            <path
                d="M183.783 143.783q-17.853 17.854-27.645 41.004Q146 208.757 146 235t10.138 50.213q9.792 23.151 27.645 41.004 17.856 17.855 41.004 27.644Q248.757 364.001 275 364q26.244 0 50.213-10.139 23.153-9.79 41.004-27.644 17.855-17.856 27.644-41.004Q404.001 261.243 404 235q0-26.244-10.139-50.213-9.79-23.151-27.644-41.004t-41.004-27.645Q301.244 106 275 106t-50.213 10.138q-23.151 9.792-41.004 27.645M148.546 235q0-25.728 9.937-49.221 9.598-22.693 27.1-40.196t40.196-27.1q23.494-9.937 49.221-9.937 25.728 0 49.222 9.937 22.692 9.598 40.194 27.1t27.101 40.196q9.937 23.494 9.937 49.221t-9.937 49.222q-9.598 22.69-27.1 40.194-17.502 17.502-40.195 27.101-23.494 9.937-49.222 9.937-25.725 0-49.222-9.937-22.69-9.596-40.195-27.1-17.502-17.502-27.1-40.195-9.937-23.495-9.937-49.222"
                data-paper-data="{&quot;isBaseLogoContainer&quot;:true}" />
        </g>
    </g>
</svg>