<svg width="97" height="96" viewBox="0 0 97 96" fill="none" xmlns="http://www.w3.org/2000/svg">
<path d="M96.5687 85.3782L88.7822 75.2183C91.3053 74.4532 93.4848 72.8155 94.9423 70.5897C96.776 67.3727 95.9468 63.4467 95.1445 59.6544C94.6593 57.7064 94.369 55.7135 94.2782 53.7063C94.3687 51.6973 94.6589 49.7027 95.1445 47.753C95.9417 43.9581 96.776 40.0347 94.9423 36.8229C93.0433 33.493 89.2198 32.2605 85.5217 31.0709C83.6808 30.5561 81.898 29.8475 80.2023 28.9566C78.6636 27.9436 77.2349 26.7682 75.9399 25.45C73.1964 22.8656 70.0856 19.9395 66.1265 19.9395C62.1673 19.9395 59.0566 22.8656 56.3118 25.4487C55.0173 26.7672 53.5889 27.9431 52.0506 28.9566C50.3551 29.8457 48.5728 30.5525 46.7325 31.0657C43.0344 32.2553 39.2109 33.4878 37.312 36.8177C35.4783 40.0347 36.3074 43.9607 37.1098 47.753C37.5949 49.7028 37.8847 51.6973 37.9748 53.7063C37.8843 55.7153 37.5941 57.7099 37.1085 59.6596C36.3113 63.4545 35.477 67.3779 37.3107 70.5897C38.7701 72.8163 40.952 74.4535 43.4772 75.217L35.6843 85.3769C35.2505 85.9431 35.3511 86.7591 35.9092 87.1993C36.1772 87.4109 36.517 87.5055 36.8538 87.4627L46.0031 86.3029L48.2617 94.3238C48.394 94.7939 48.7753 95.1488 49.2483 95.242C49.3284 95.2574 49.4098 95.2654 49.4914 95.2654C49.8865 95.2657 50.2597 95.0806 50.5023 94.7641L58.674 84.0964C60.6849 86.0833 63.3264 87.2802 66.1265 87.473C68.9266 87.2802 71.5681 86.0833 73.579 84.0964L81.7507 94.7602C81.9925 95.0782 82.3657 95.2647 82.7616 95.2654C82.8432 95.2654 82.9246 95.2574 83.0047 95.242C83.4777 95.1488 83.859 94.7939 83.9913 94.3238L86.2498 86.3042L95.3991 87.464C96.1004 87.5532 96.7402 87.0487 96.8281 86.337C96.8704 85.9951 96.7771 85.6503 96.5687 85.3782ZM50.0288 91.1497L48.1619 84.5184C47.9883 83.9033 47.3991 83.5082 46.7735 83.5873L39.6076 84.4964L46.03 76.117L46.7376 76.3469C48.5761 76.8604 50.3567 77.5672 52.0506 78.456C53.5894 79.469 55.0181 80.6444 56.3131 81.9626L56.7533 82.3756L50.0288 91.1497ZM66.1265 84.8756C63.1706 84.8756 60.6842 82.5379 58.0508 80.0599C56.6181 78.6072 55.0355 77.3154 53.3303 76.2066C51.475 75.2209 49.5219 74.4373 47.5041 73.8689C44.1221 72.7793 40.9269 71.7507 39.5244 69.2909C38.1859 66.9416 38.8769 63.6675 39.6102 60.1999C40.1378 58.0734 40.4475 55.8974 40.534 53.7063C40.448 51.5152 40.1388 49.3392 39.6114 47.2127C38.8782 43.7464 38.1872 40.4723 39.5257 38.1216C40.9333 35.6619 44.1234 34.6333 47.5054 33.5436C49.5229 32.9751 51.4753 32.1915 53.3303 31.2059C55.035 30.0972 56.6173 28.8053 58.0495 27.3526C60.6842 24.8747 63.1706 22.537 66.1265 22.537C69.0824 22.537 71.5687 24.8747 74.2022 27.3526C75.6349 28.8054 77.2175 30.0972 78.9227 31.2059C80.778 32.1917 82.731 32.9753 84.7488 33.5436C88.1309 34.6333 91.3261 35.6619 92.7286 38.1216C94.067 40.471 93.376 43.7451 92.6428 47.2127C92.1151 49.3392 91.8055 51.5152 91.7189 53.7063C91.805 55.8974 92.1142 58.0734 92.6415 60.1999C93.3748 63.6662 94.0658 66.9403 92.7273 69.2909C91.3197 71.7507 88.1296 72.7793 84.7475 73.8689C82.7301 74.4375 80.7777 75.2211 78.9227 76.2066C77.2179 77.3154 75.6357 78.6073 74.2035 80.0599C71.5687 82.5379 69.0824 84.8756 66.1265 84.8756ZM85.4859 83.5873C84.8603 83.5082 84.271 83.9033 84.0975 84.5184L82.2241 91.1497L75.501 82.3769L75.9412 81.9639C77.2357 80.6453 78.6641 79.4695 80.2023 78.456C81.8978 77.5669 83.6802 76.8601 85.5204 76.3469L86.2281 76.117L92.6518 84.4964L85.4859 83.5873Z" fill="#5C5C5C"/>
<path d="M66.1267 30.3284C53.4058 30.3284 43.0935 40.7947 43.0935 53.7054C43.0935 66.6162 53.4058 77.0824 66.1267 77.0824C78.8476 77.0824 89.1599 66.6162 89.1599 53.7054C89.1452 40.8008 78.8415 30.3435 66.1267 30.3284ZM66.1267 74.485C54.8193 74.485 45.6528 65.1816 45.6528 53.7054C45.6528 42.2293 54.8193 32.9259 66.1267 32.9259C77.4341 32.9259 86.6007 42.2293 86.6007 53.7054C86.5872 65.176 77.4286 74.4713 66.1267 74.485Z" fill="#5C5C5C"/>
<path d="M80.8906 48.281C80.4091 47.6097 79.6407 47.2125 78.8227 47.2122H70.9889L68.5576 39.6445C68.1163 38.2817 66.67 37.5401 65.3272 37.988C64.5548 38.2456 63.9489 38.8606 63.695 39.6445L61.2702 47.2122H53.4299C52.0164 47.2115 50.87 48.3737 50.8694 49.8083C50.8689 50.6395 51.2605 51.4205 51.9225 51.9096L58.2643 56.585L55.842 64.1527C55.405 65.517 56.1406 66.9824 57.4847 67.4258C58.2642 67.6829 59.1177 67.5456 59.7807 67.0566L66.1263 62.3825L72.4694 67.0579C73.3629 67.7316 74.5856 67.7316 75.4791 67.0579C76.3859 66.4038 76.7633 65.224 76.4081 64.154L73.9858 56.585L80.3276 51.9096C81.4704 51.0655 81.7225 49.4408 80.8906 48.281ZM71.7285 55.0395C71.2797 55.3706 71.0921 55.9574 71.264 56.4928L73.9742 64.9579L66.8787 59.7266C66.4304 59.3963 65.8235 59.3963 65.3752 59.7266L58.2797 64.9579L60.9886 56.4928C61.16 55.9577 60.9725 55.3717 60.5241 55.0408L53.4299 49.8096H62.1992C62.7536 49.8096 63.2448 49.4473 63.4161 48.9122L66.1263 40.4471L68.8366 48.9109C69.0079 49.446 69.4991 49.8083 70.0535 49.8083L78.8227 49.8096L71.7285 55.0395Z" fill="#5C5C5C"/>
<circle cx="43.4174" cy="43.2016" r="43.2016" fill="url(#paint0_linear_1_387)" style="mix-blend-mode:multiply"/>
<defs>
<linearGradient id="paint0_linear_1_387" x1="85.4957" y1="2.08955" x2="-11.5081" y2="30.6806" gradientUnits="userSpaceOnUse">
<stop stop-color="#FFC000"/>
<stop offset="1" stop-color="#FF8A00"/>
</linearGradient>
</defs>
</svg>
