<svg width="115" height="100" viewBox="0 0 115 100" fill="none" xmlns="http://www.w3.org/2000/svg">
<path d="M41.5093 22.5122L72.9323 26.7216C72.9911 26.7286 73.0498 26.7328 73.1086 26.7328C73.1673 26.7328 73.2261 26.7285 73.2849 26.7216L103.165 22.7184V27.5901C102.309 28.5793 100.433 31.0474 100.433 33.7485C100.433 36.8368 102.884 37.9579 104.532 37.9579C106.179 37.9579 108.63 36.8368 108.63 33.7485C108.63 31.0474 106.754 28.5793 105.898 27.5901V21.1203C105.898 20.9351 105.859 20.7597 105.795 20.5969C105.772 20.5393 105.732 20.4944 105.702 20.4412C105.649 20.343 105.596 20.2461 105.522 20.1648C105.474 20.1128 105.417 20.0778 105.362 20.0357C105.285 19.9711 105.208 19.9094 105.118 19.8645C105.051 19.8308 104.98 19.8168 104.907 19.7958C104.841 19.7747 104.78 19.7382 104.708 19.7284L73.285 15.5189C73.1675 15.505 73.05 15.505 72.9325 15.5189L41.5095 19.7284C40.829 19.8196 40.3196 20.4158 40.3196 21.1203C40.3193 21.8247 40.8289 22.4211 41.5093 22.5122ZM105.898 33.7485C105.898 34.8683 105.158 35.1305 104.531 35.1516C103.904 35.1305 103.165 34.8681 103.165 33.7485C103.165 32.5838 103.862 31.2845 104.531 30.3262C105.201 31.2847 105.898 32.584 105.898 33.7485ZM73.1084 18.3253L93.9691 21.1203L73.1084 23.9154L52.2478 21.1203L73.1084 18.3253Z" fill="#5C5C5C"/>
<path d="M81.3038 57.6014C84.0635 57.6014 86.3301 55.4812 86.6935 52.7466L91.687 48.9021C92.2909 48.4375 92.4138 47.5578 91.9603 46.9376C91.508 46.3174 90.6514 46.1898 90.0475 46.6569L86.5651 49.3398C86.0446 47.6294 84.5062 46.3764 82.6699 46.3764H77.2051C74.9454 46.3764 73.1065 48.2651 73.1065 50.5858C73.1065 48.2651 71.2676 46.3764 69.0079 46.3764H63.5431C61.7068 46.3764 60.1686 47.6294 59.6479 49.3398L56.1655 46.6569C55.563 46.1924 54.705 46.3187 54.2528 46.9376C53.7992 47.5578 53.9221 48.4375 54.5261 48.9021L59.5195 52.7466C59.8829 55.4812 62.1481 57.6014 64.9092 57.6014H67.6417C70.6556 57.6014 73.1065 55.0842 73.1065 51.9889C73.1065 55.0843 75.5575 57.6014 78.5713 57.6014H81.3038ZM70.374 51.9889C70.374 53.5365 69.1472 54.7952 67.6415 54.7952H64.9091C63.4022 54.7952 62.1766 53.5367 62.1766 51.9889V50.5858C62.1766 49.8127 62.7887 49.1827 63.5427 49.1827H69.0075C69.7616 49.1827 70.3737 49.8127 70.3737 50.5858V51.9889H70.374ZM75.839 51.9889V50.5858C75.839 49.8127 76.4511 49.1827 77.2051 49.1827H82.6699C83.424 49.1827 84.0361 49.8127 84.0361 50.5858V51.9889C84.0361 53.5365 82.8107 54.7952 81.3036 54.7952H78.5711C77.0644 54.7951 75.839 53.5365 75.839 51.9889Z" fill="#5C5C5C"/>
<path d="M94.9098 86.7242C94.8838 86.6246 94.8428 86.5348 94.7977 86.4422C94.7718 86.3931 94.7663 86.337 94.7362 86.2893C94.7212 86.2683 94.6994 86.2571 94.6843 86.236C94.627 86.1589 94.5559 86.0958 94.4821 86.0312C94.4165 85.9695 94.3523 85.9092 94.2745 85.8641C94.2513 85.8486 94.2377 85.8263 94.2116 85.8121L88.7468 83.0073C88.3068 82.7814 87.7849 82.8151 87.3779 83.0943L79.1791 88.7068C78.7994 88.9664 78.5712 89.4056 78.5712 89.8742V94.8497C77.7584 95.5176 75.7624 96.8898 73.1064 96.8898C70.4764 96.8898 68.4613 95.5106 67.6416 94.8454V89.8741C67.6416 89.4054 67.4135 88.9662 67.0337 88.7066L58.8364 83.0941C58.4293 82.8149 57.9073 82.7812 57.4675 83.0071L52.0027 85.812C51.9781 85.8246 51.9645 85.847 51.9427 85.8611C51.8607 85.9088 51.7924 85.972 51.7227 86.0379C51.6543 86.0997 51.5861 86.1586 51.5328 86.2316C51.5165 86.2541 51.4918 86.2666 51.4768 86.2892C51.444 86.3396 51.4385 86.3972 51.4126 86.4505C51.3702 86.5389 51.3292 86.6244 51.3047 86.7198C51.2827 86.8083 51.2773 86.8924 51.2719 86.9822C51.2664 87.0707 51.2623 87.1562 51.2733 87.246C51.2842 87.3441 51.3157 87.4339 51.3471 87.5267C51.3662 87.5827 51.3649 87.6418 51.3908 87.695C51.4031 87.7204 51.4264 87.7356 51.44 87.7597C51.4851 87.841 51.5466 87.9098 51.6094 87.9813C51.6708 88.0515 51.7282 88.1216 51.7992 88.1778C51.8212 88.1946 51.8333 88.2199 51.8553 88.2354L60.0526 93.8479C60.2862 94.0078 60.5498 94.0836 60.8094 94.0836C61.2506 94.0836 61.6851 93.8648 61.9474 93.4593C62.3669 92.8139 62.1975 91.9424 61.5689 91.5131L55.3294 87.242L57.9799 85.881L64.9093 90.625V95.4869C64.9093 95.8587 65.0528 96.2165 65.3096 96.4789C65.438 96.6108 68.4956 99.6963 73.1066 99.6963C77.7176 99.6963 80.7752 96.6108 80.9036 96.4789C81.1591 96.2165 81.3039 95.8587 81.3039 95.4869V90.625L88.2347 85.881L90.8838 87.2407L84.6443 91.5133C84.0159 91.9426 83.8465 92.8139 84.2658 93.4595C84.528 93.865 84.9626 94.0838 85.4038 94.0838C85.6633 94.0838 85.927 94.008 86.1606 93.848L94.3579 88.2355C94.3798 88.2201 94.3907 88.1962 94.4112 88.1808C94.4877 88.1219 94.5478 88.0489 94.612 87.9746C94.6693 87.9044 94.7281 87.8412 94.7718 87.7626C94.7854 87.7373 94.81 87.722 94.8224 87.6952C94.851 87.6376 94.851 87.576 94.8702 87.517C94.8989 87.4285 94.929 87.3443 94.9399 87.2517C94.9522 87.1564 94.948 87.0666 94.9413 86.9725C94.9357 86.8885 94.9315 86.8084 94.9098 86.7242Z" fill="#5C5C5C"/>
<path d="M100.532 81.9774C100.747 82.5247 101.259 82.8586 101.801 82.8586C101.97 82.8586 102.141 82.8264 102.308 82.7577C103.009 82.4714 103.349 81.6548 103.07 80.9349C103.043 80.8675 100.435 74.0751 100.435 67.4242V56.199C100.435 44.2443 94.4687 41.0436 94.2146 40.9133C93.7924 40.6957 93.2883 40.7168 92.8867 40.9736C92.4837 41.2304 92.2378 41.6808 92.2378 42.1677V47.7802C92.2378 53.0869 88.2841 63.9879 86.9165 66.7969C85.691 69.3155 79.2069 77.2461 73.1109 77.2461C67.015 77.2461 60.5308 69.3156 59.3039 66.7969C57.9378 63.9878 53.9839 53.0869 53.9839 47.7802V42.1677C53.9839 41.6808 53.7379 41.2304 53.335 40.9736C52.932 40.7168 52.4291 40.6957 52.0071 40.9133C51.753 41.0438 45.7867 44.2443 45.7867 56.199V67.4242C45.7867 74.0751 43.1787 80.8677 43.1513 80.9349C42.8725 81.6548 43.2128 82.4714 43.9137 82.7577C44.6119 83.0439 45.4097 82.696 45.6897 81.9774C45.8045 81.68 48.5191 74.6277 48.5191 67.424V56.1989C48.5191 50.5091 49.9632 47.2034 51.2515 45.3849V47.78C51.2515 53.8023 55.5537 65.3683 56.8598 68.0512C58.5225 71.4664 65.799 80.0523 73.1109 80.0523C80.4228 80.0523 87.6994 71.4664 89.3606 68.0512C90.668 65.3683 94.9703 53.8023 94.9703 47.78V45.3877C96.2614 47.2076 97.7028 50.512 97.7028 56.1989V67.424C97.7025 74.6277 100.417 81.68 100.532 81.9774Z" fill="#5C5C5C"/>
<path d="M76.2588 66.4162C76.2151 66.4568 75.185 67.4236 73.1098 67.4236C71.0646 67.4236 70.0343 66.4849 69.9634 66.4176C69.432 65.8831 68.5753 65.8872 68.0452 66.4316C67.511 66.9803 67.511 67.8671 68.0452 68.4156C68.2255 68.6008 69.9032 70.23 73.1098 70.23C76.3163 70.23 77.994 68.601 78.1743 68.4156C78.7017 67.874 78.7003 67.007 78.1825 66.4568C77.662 65.9069 76.804 65.8915 76.2588 66.4162Z" fill="#5C5C5C"/>
<path d="M114.024 97.849C113.904 97.4758 110.922 88.6654 99.3971 85.7063C98.6648 85.5154 97.9243 85.9757 97.7413 86.7265C97.5583 87.4786 98.0035 88.2404 98.7359 88.4285C108.746 90.999 111.33 98.4273 111.433 98.736C111.623 99.324 112.156 99.6957 112.729 99.6957C112.871 99.6957 113.017 99.6732 113.161 99.6242C113.876 99.3784 114.263 98.5844 114.024 97.849Z" fill="#5C5C5C"/>
<path d="M94.9695 36.5543V26.7323C94.9695 25.9579 94.3589 25.3293 93.6033 25.3293C92.8478 25.3293 92.2372 25.9579 92.2372 26.7323V35.6464C89.9775 36.6301 82.8266 39.3606 73.1101 39.3606C63.3936 39.3606 56.2428 36.6301 53.9831 35.6464V26.7323C53.9831 25.9579 53.3724 25.3293 52.6169 25.3293C51.8614 25.3293 51.2507 25.9579 51.2507 26.7323V36.5543C51.2507 37.086 51.5431 37.5716 52.0063 37.81C52.3532 37.9868 60.6353 42.1668 73.1101 42.1668C85.5849 42.1668 93.867 37.9868 94.214 37.81C94.6772 37.5716 94.9695 37.086 94.9695 36.5543Z" fill="#5C5C5C"/>
<path d="M46.8205 85.7063C35.2951 88.6656 32.314 97.4759 32.1938 97.849C31.9547 98.5842 32.3414 99.3784 33.0572 99.624C33.2006 99.6732 33.3455 99.6956 33.489 99.6956C34.0614 99.6956 34.5942 99.3238 34.7842 98.7358C34.8102 98.6587 37.3965 91.0171 47.4819 88.4283C48.2142 88.2404 48.6596 87.4784 48.4764 86.7263C48.2933 85.9757 47.5513 85.5154 46.8205 85.7063Z" fill="#5C5C5C"/>
<circle cx="43.2016" cy="43.2016" r="43.2016" fill="url(#paint0_linear_1_359)" style="mix-blend-mode:multiply"/>
<defs>
<linearGradient id="paint0_linear_1_359" x1="85.2799" y1="2.08955" x2="-11.7239" y2="30.6806" gradientUnits="userSpaceOnUse">
<stop stop-color="#FFC000"/>
<stop offset="1" stop-color="#FF8A00"/>
</linearGradient>
</defs>
</svg>
