<svg width="100" height="90" viewBox="0 0 100 90" fill="none" xmlns="http://www.w3.org/2000/svg">
<path d="M38.993 42.806C38.3317 44.5698 38.848 46.5595 40.2848 47.7783C43.007 50.5024 48.6053 60.3361 51.3765 67.2655C53.2676 71.9917 57.42 76.6304 60.5704 79.6907C61.9263 81.025 62.6874 82.849 62.6835 84.7518V85.2734C62.6835 87.6365 64.5988 89.5518 66.9619 89.5518H89.7783C92.1414 89.5518 94.0567 87.6365 94.0567 85.2734V80.8925C94.0437 80.5302 94.1814 80.1784 94.4373 79.9218C99.7008 75.1088 99.7609 67.0742 99.7609 66.7347V44.1592C99.8137 41.1054 97.5113 38.5236 94.4719 38.2286C93.3295 38.1535 92.1911 38.4244 91.2047 39.0054V36.7879C91.2164 34.7329 90.1158 32.8326 88.3272 31.8201C86.5392 30.8076 84.3432 30.8416 82.5872 31.9095C82.4044 29.9857 81.2489 28.2898 79.5262 27.4157C77.8028 26.5416 75.7524 26.6102 74.0917 27.5985V25.2367C77.6312 23.228 79.8115 19.4666 79.7965 15.3971C79.7965 9.09636 74.6884 3.98891 68.3876 3.98891C62.0868 3.98891 56.9794 9.09636 56.9794 15.3971C56.9644 19.4666 59.1447 23.228 62.6835 25.2367V48.1961C62.724 49.8796 62.4948 51.558 62.0046 53.1691C61.8518 53.6449 61.4621 54.0079 60.9764 54.1273C60.5195 54.2429 60.0351 54.1156 59.693 53.7905C58.5794 52.7284 57.5897 51.5429 56.7444 50.2569C54.2696 46.5549 48.0426 39.6399 44.1448 39.6399C41.9553 39.5942 39.9415 40.8319 38.993 42.806ZM59.8314 15.3971C59.8314 10.6716 63.662 6.84096 68.3876 6.84096C73.1132 6.84096 76.9438 10.6716 76.9438 15.3971C76.9575 17.8373 75.9182 20.1645 74.0917 21.7834V15.3971C74.0917 12.2467 71.538 9.69302 68.3876 9.69302C65.2372 9.69302 62.6835 12.2467 62.6835 15.3971V21.7834C60.8576 20.1645 59.8177 17.8373 59.8314 15.3971ZM54.3669 51.84C55.3337 53.3061 56.4643 54.6574 57.7366 55.8684C58.7857 56.8606 60.2695 57.2477 61.6697 56.8939C63.0967 56.5381 64.2424 55.4767 64.7071 54.0817C65.2973 52.1768 65.5773 50.1897 65.5355 48.1961V15.3971C65.5355 13.8219 66.8124 12.5451 68.3876 12.5451C69.9628 12.5451 71.2397 13.8219 71.2397 15.3971V45.344C71.2397 46.1319 71.8781 46.7704 72.666 46.7704C73.4533 46.7704 74.0917 46.1319 74.0917 45.344V32.5101C74.0917 30.9349 75.3692 29.658 76.9438 29.658C78.519 29.658 79.7965 30.9349 79.7965 32.5101V45.344C79.7965 46.1319 80.4349 46.7704 81.2222 46.7704C82.0101 46.7704 82.6485 46.1319 82.6485 45.344V36.7879C82.6485 35.2127 83.9254 33.9358 85.5006 33.9358C87.0758 33.9358 88.3526 35.2127 88.3526 36.7879V46.7704C88.3526 47.5576 88.9911 48.1961 89.7783 48.1961C90.5663 48.1961 91.2047 47.5576 91.2047 46.7704V43.9183C91.2027 43.1617 91.5043 42.4358 92.0416 41.9031C92.6297 41.3202 93.4399 41.018 94.2663 41.0734C95.8069 41.2745 96.9467 42.6062 96.9088 44.1592V66.7347C96.9088 66.8046 96.8363 73.8652 92.5109 77.8185C91.6656 78.6156 91.1916 79.7306 91.2047 80.8925V85.2734C91.2047 86.0613 90.5663 86.6998 89.7783 86.6998H66.9619C66.174 86.6998 65.5355 86.0613 65.5355 85.2734V84.7518C65.5375 82.0787 64.4637 79.5171 62.5568 77.6442C60.1409 75.2987 55.82 70.6907 54.0261 66.2047C51.0912 58.8719 45.2846 48.7451 42.3013 45.7618C41.6224 45.0836 41.3952 44.4556 41.6263 43.8968C42.1433 43.0011 43.1108 42.4613 44.1448 42.492C46.083 42.492 51.3379 47.2965 54.3669 51.84Z" fill="#5C5C5C"/>
<path d="M92.631 65.3086C93.4189 65.3086 94.0574 64.6701 94.0574 63.8822V55.326C94.0574 54.5388 93.4189 53.9003 92.631 53.9003C91.8438 53.9003 91.2053 54.5388 91.2053 55.326V63.8822C91.2053 64.6701 91.8438 65.3086 92.631 65.3086Z" fill="#5C5C5C"/>
<path d="M91.2025 73.8649C91.5805 73.8649 91.9434 73.7147 92.2104 73.4471C93.2953 72.4431 93.9553 71.0618 94.0545 69.5864C94.0532 68.8161 93.4331 68.1901 92.6628 68.181C91.884 68.166 91.2358 68.7757 91.2025 69.5538C91.0954 70.2778 90.739 70.9416 90.1939 71.4306C89.7866 71.8386 89.6645 72.4516 89.8851 72.9842C90.1058 73.5176 90.6254 73.8649 91.2025 73.8649Z" fill="#5C5C5C"/>
<path d="M69.8114 83.8487H71.2371C72.025 83.8487 72.6634 83.2103 72.6634 82.4224C72.6634 81.6351 72.025 80.9967 71.2371 80.9967H69.8114C69.0234 80.9967 68.385 81.6351 68.385 82.4224C68.385 83.2103 69.0234 83.8487 69.8114 83.8487Z" fill="#5C5C5C"/>
<path d="M76.9423 83.8487H86.9248C87.7127 83.8487 88.3512 83.2103 88.3512 82.4224C88.3512 81.6351 87.7127 80.9967 86.9248 80.9967H76.9423C76.155 80.9967 75.5166 81.6351 75.5166 82.4224C75.5166 83.2103 76.155 83.8487 76.9423 83.8487Z" fill="#5C5C5C"/>
<path d="M56.9747 27.5748C57.544 27.5748 58.0584 27.2373 58.2842 26.715C58.5101 26.1928 58.4043 25.5863 58.0146 25.1718C53.0736 19.9495 52.8053 11.862 57.3899 6.32371C57.7287 5.93269 57.8292 5.38891 57.653 4.90258C57.4761 4.41625 57.0498 4.06374 56.5387 3.98149C56.0275 3.89924 55.5125 4.1003 55.192 4.50699C49.6928 11.1524 50.0114 20.8555 55.9355 27.1256C56.2051 27.4122 56.5811 27.5748 56.9747 27.5748Z" fill="#5C5C5C"/>
<path d="M81.7 23.797C82.0362 23.9694 82.4279 24.0014 82.7875 23.8852C83.1479 23.769 83.4469 23.515 83.6192 23.1782C86.7369 17.1072 85.9353 9.76197 81.5812 4.50699C81.2613 4.1003 80.7456 3.89924 80.2345 3.98149C79.724 4.06374 79.2977 4.41625 79.1208 4.90258C78.9439 5.38891 79.0444 5.93269 79.3839 6.32371C83.0121 10.7013 83.6799 16.8206 81.0825 21.8778C80.7228 22.5783 80.9995 23.4373 81.7 23.797Z" fill="#5C5C5C"/>
<circle cx="43.6911" cy="43.8417" r="43.2016" fill="url(#paint0_linear_1_406)" style="mix-blend-mode:multiply"/>
<defs>
<linearGradient id="paint0_linear_1_406" x1="85.7694" y1="2.72964" x2="-11.2344" y2="31.3207" gradientUnits="userSpaceOnUse">
<stop stop-color="#FFC000"/>
<stop offset="1" stop-color="#FF8A00"/>
</linearGradient>
</defs>
</svg>
