<svg width="110" height="97" viewBox="0 0 110 97" fill="none" xmlns="http://www.w3.org/2000/svg">
<path d="M61.3211 73.1116H40.6434V68.5884C40.6434 66.0903 38.6183 64.0652 36.1202 64.0652C33.622 64.0652 31.5969 66.0903 31.5969 68.5884V95.0816C31.5969 95.7953 32.1756 96.374 32.8893 96.374H50.9822C53.1141 96.3834 54.8501 94.6628 54.8596 92.5309C54.864 91.5624 54.5041 90.6277 53.8513 89.9122C55.1953 88.4512 55.1953 86.2038 53.8513 84.7428C54.8236 83.7018 55.1239 82.2006 54.6267 80.8658H61.3211C63.4624 80.8658 65.1982 79.13 65.1982 76.9887C65.1982 74.8474 63.4624 73.1116 61.3211 73.1116ZM50.9822 93.7893H45.8128C45.0991 93.7893 44.5205 93.2106 44.5205 92.4969C44.5205 91.7832 45.0991 91.2046 45.8128 91.2046H50.9822C51.6959 91.2046 52.2746 91.7832 52.2746 92.4969C52.2746 93.2106 51.6961 93.7893 50.9822 93.7893ZM50.9822 88.6199H45.8128C45.0991 88.6199 44.5205 88.0412 44.5205 87.3275C44.5205 86.6138 45.0991 86.0352 45.8128 86.0352H50.9822C51.6959 86.0352 52.2746 86.6138 52.2746 87.3275C52.2746 88.0412 51.6961 88.6199 50.9822 88.6199ZM50.9822 83.4505H45.8128C45.0991 83.4505 44.5205 82.8718 44.5205 82.1581C44.5205 81.4444 45.0991 80.8658 45.8128 80.8658H50.9822C51.6959 80.8658 52.2746 81.4444 52.2746 82.1581C52.2746 82.8718 51.6961 83.4505 50.9822 83.4505ZM61.3211 78.281H45.8128C43.6809 78.2717 41.945 79.9923 41.9354 82.1242C41.9311 83.0926 42.291 84.0273 42.9438 84.7428C41.5997 86.2038 41.5997 88.4512 42.9438 89.9122C41.9715 90.9532 41.6712 92.4545 42.1684 93.7893H34.1816V68.5884C34.1816 67.5178 35.0496 66.6499 36.1202 66.6499C37.1907 66.6499 38.0587 67.5178 38.0587 68.5884V74.404C38.0587 75.1177 38.6373 75.6963 39.3511 75.6963H61.3211C62.0348 75.6963 62.6134 76.275 62.6134 76.9887C62.6134 77.7024 62.0349 78.281 61.3211 78.281Z" fill="#5C5C5C"/>
<path d="M107.849 18.8319H89.7557C87.6238 18.8226 85.8878 20.5432 85.8783 22.6751C85.874 23.6435 86.2339 24.5782 86.8867 25.2937C85.5426 26.7547 85.5426 29.0021 86.8867 30.4631C85.9143 31.5041 85.614 33.0054 86.1113 34.3402H79.4169C77.2756 34.3402 75.5398 36.076 75.5398 38.2173C75.5398 40.3585 77.2756 42.0943 79.4169 42.0943H100.095V46.6176C100.095 49.1157 102.12 51.1408 104.618 51.1408C107.116 51.1408 109.141 49.1157 109.141 46.6176V20.1243C109.141 19.4106 108.563 18.8319 107.849 18.8319ZM89.7557 21.4167H94.9251C95.6388 21.4167 96.2175 21.9953 96.2175 22.709C96.2175 23.4227 95.6388 24.0014 94.9251 24.0014H89.7557C89.042 24.0014 88.4633 23.4227 88.4633 22.709C88.4633 21.9953 89.042 21.4167 89.7557 21.4167ZM89.7557 26.5861H94.9251C95.6388 26.5861 96.2175 27.1647 96.2175 27.8784C96.2175 28.5921 95.6388 29.1708 94.9251 29.1708H89.7557C89.042 29.1708 88.4633 28.5921 88.4633 27.8784C88.4633 27.1647 89.042 26.5861 89.7557 26.5861ZM89.7557 31.7555H94.9251C95.6388 31.7555 96.2175 32.3341 96.2175 33.0479C96.2175 33.7616 95.6388 34.3402 94.9251 34.3402H89.7557C89.042 34.3402 88.4633 33.7616 88.4633 33.0479C88.4633 32.3341 89.042 31.7555 89.7557 31.7555ZM106.556 46.6176C106.556 47.6881 105.688 48.5561 104.618 48.5561C103.547 48.5561 102.679 47.6881 102.679 46.6176V40.802C102.679 40.0883 102.101 39.5096 101.387 39.5096H79.4169C78.7032 39.5096 78.1245 38.931 78.1245 38.2173C78.1245 37.5036 78.7032 36.9249 79.4169 36.9249H94.9251C97.057 36.9343 98.793 35.2137 98.8025 33.0818C98.8069 32.1133 98.447 31.1786 97.7942 30.4631C99.1382 29.0021 99.1382 26.7547 97.7942 25.2937C98.7665 24.2527 99.0668 22.7515 98.5696 21.4167H106.556V46.6176Z" fill="#5C5C5C"/>
<path d="M70.3685 51.1401C66.7998 51.1401 63.9067 54.0332 63.9067 57.6019C63.9109 61.1688 66.8016 64.0595 70.3685 64.0637C73.9372 64.0637 76.8303 61.1706 76.8303 57.6019C76.8303 54.0332 73.9374 51.1401 70.3685 51.1401ZM70.3685 61.479C68.2272 61.479 66.4914 59.7432 66.4914 57.6019C66.4914 55.4606 68.2272 53.7248 70.3685 53.7248C72.5098 53.7248 74.2456 55.4606 74.2456 57.6019C74.2456 59.7432 72.5098 61.479 70.3685 61.479Z" fill="#5C5C5C"/>
<path d="M99.7559 56.7373L99.3682 56.3018C84.9548 40.2859 60.2868 38.9871 44.271 53.4007C43.2537 54.3162 42.2854 55.2845 41.3699 56.3018L40.9822 56.7373C40.5398 57.2287 40.5398 57.9749 40.9822 58.4664L41.3699 58.902C55.7836 74.9178 80.4514 76.2166 96.4672 61.803C97.4845 60.8875 98.4528 59.9192 99.3682 58.902L99.7559 58.4664C100.198 57.975 100.198 57.2289 99.7559 56.7373ZM43.682 57.6019C48.259 52.6877 54.1035 49.1319 60.5718 47.3263C54.8975 52.7061 54.6586 61.667 60.0383 67.3414C60.2113 67.5239 60.3892 67.7018 60.5718 67.8748C54.1038 66.0699 48.2593 62.5151 43.682 57.6019ZM70.3691 69.2331C63.9454 69.2331 58.7379 64.0255 58.7379 57.6019C58.7379 51.178 63.9453 45.9707 70.3691 45.9707C76.7895 45.9784 81.9925 51.1814 82.0003 57.6019C82.0003 64.0257 76.7929 69.2331 70.3691 69.2331ZM80.1664 67.8774C85.8407 62.4978 86.0796 53.5368 80.6999 47.8624C80.5268 47.6798 80.349 47.5019 80.1664 47.3289C86.6345 49.1339 92.4789 52.6887 97.0562 57.6019C92.4792 62.516 86.6347 66.0718 80.1664 67.8774Z" fill="#5C5C5C"/>
<circle cx="43.7836" cy="43.2016" r="43.2016" fill="url(#paint0_linear_1_372)" style="mix-blend-mode:multiply"/>
<defs>
<linearGradient id="paint0_linear_1_372" x1="85.8619" y1="2.08955" x2="-11.1419" y2="30.6806" gradientUnits="userSpaceOnUse">
<stop stop-color="#FFC000"/>
<stop offset="1" stop-color="#FF8A00"/>
</linearGradient>
</defs>
</svg>
