<?xml version="1.0" standalone="no"?>
<!DOCTYPE svg PUBLIC "-//W3C//DTD SVG 20010904//EN"
 "http://www.w3.org/TR/2001/REC-SVG-20010904/DTD/svg10.dtd">
<svg version="1.0" xmlns="http://www.w3.org/2000/svg"
 width="700.000000pt" height="700.000000pt" viewBox="0 0 700.000000 700.000000"
 preserveAspectRatio="xMidYMid meet">
<metadata>
Created by potrace 1.14, written by Peter Selinger 2001-2017
</metadata>
<g transform="translate(0.000000,700.000000) scale(0.100000,-0.100000)"
fill="#000000" stroke="none">
<path d="M3160 6374 c-560 -67 -1045 -264 -1505 -613 -147 -111 -441 -409
-556 -563 -553 -743 -739 -1657 -518 -2547 212 -853 793 -1573 1584 -1961 248
-122 440 -191 676 -244 532 -118 1098 -90 1608 80 887 296 1587 988 1894 1871
234 672 220 1425 -39 2081 -149 378 -361 706 -644 996 -265 272 -513 453 -835
611 -323 158 -641 250 -1000 290 -162 18 -509 18 -665 -1z m675 -59 c376 -44
756 -163 1076 -340 953 -525 1539 -1511 1539 -2590 0 -659 -209 -1270 -619
-1810 -95 -126 -386 -419 -511 -515 -405 -312 -858 -509 -1353 -590 -794 -130
-1618 80 -2269 577 -128 97 -362 324 -471 455 -905 1094 -902 2682 6 3768 489
585 1166 952 1927 1045 150 18 517 18 675 0z"/>
<path d="M3640 5987 c0 -3 -9 -68 -20 -144 -22 -150 -20 -179 15 -234 69 -107
287 -121 363 -24 28 35 37 70 57 219 17 128 16 136 -32 136 -26 0 -25 2 -48
-159 -17 -127 -30 -156 -80 -177 -49 -20 -94 -17 -145 9 -74 37 -78 52 -57
218 10 77 16 143 14 145 -7 7 -67 17 -67 11z"/>
<path d="M3023 5946 c-39 -6 -74 -13 -77 -17 -6 -6 49 -408 58 -416 6 -7 172
14 228 28 114 29 172 177 117 299 -51 114 -125 138 -326 106z m224 -87 c71
-66 68 -188 -7 -232 -24 -15 -167 -43 -175 -35 -5 4 -43 272 -40 276 8 9 105
20 148 18 34 -2 55 -10 74 -27z"/>
<path d="M2463 5773 c-95 -42 -173 -80 -173 -85 0 -9 158 -379 165 -386 2 -2
84 31 183 74 l180 77 -10 29 c-6 15 -14 30 -18 33 -4 3 -70 -22 -145 -55 -76
-34 -142 -59 -147 -58 -8 3 -120 250 -115 254 1 1 63 28 137 60 74 31 139 61
144 65 9 8 -11 70 -23 68 -3 0 -84 -35 -178 -76z"/>
<path d="M2565 5640 c-60 -27 -114 -51 -118 -52 -9 -4 12 -68 22 -68 10 0 229
95 237 102 5 5 -22 69 -29 67 -1 0 -51 -22 -112 -49z"/>
<path d="M4601 5510 c-62 -100 -111 -183 -110 -185 8 -6 314 -198 324 -201 6
-3 18 9 28 25 l17 30 -67 43 c-38 24 -96 61 -131 83 -35 21 -65 41 -67 44 -3
6 123 213 141 231 6 6 61 -23 143 -75 l135 -84 18 30 c11 17 18 32 16 34 -9 8
-312 197 -322 201 -7 3 -57 -68 -125 -176z"/>
<path d="M4693 5473 c-17 -26 -17 -27 10 -47 15 -11 65 -44 111 -73 l85 -52
20 32 c11 17 19 32 18 33 -20 14 -216 134 -220 134 -4 0 -14 -12 -24 -27z"/>
<path d="M5127 5143 c-180 -166 -173 -138 -63 -254 81 -85 138 -114 203 -105
121 16 203 108 203 229 0 63 -18 95 -120 205 l-65 70 -158 -145z m205 -15 c74
-87 83 -119 52 -185 -25 -51 -78 -83 -138 -83 -48 0 -52 2 -114 65 l-63 65 63
58 c120 111 143 131 149 132 4 0 27 -24 51 -52z"/>
<path d="M1655 5205 c-88 -34 -144 -119 -145 -220 0 -191 226 -295 375 -173
119 99 104 295 -30 373 -56 33 -142 42 -200 20z m163 -85 c97 -59 96 -192 -1
-264 -39 -28 -126 -28 -164 0 -67 50 -87 115 -58 189 33 87 142 124 223 75z"/>
<path d="M2633 4975 c-124 -34 -253 -128 -327 -239 -19 -29 -47 -87 -61 -129
l-25 -76 0 -1133 c0 -1254 -2 -1198 65 -1327 41 -78 117 -159 199 -213 304
-197 720 -36 831 322 13 43 18 107 22 288 l6 232 386 0 c419 0 505 7 650 56
298 100 565 349 690 643 70 165 100 371 82 555 -29 284 -131 499 -335 702
-183 183 -363 278 -600 319 -126 21 -1503 21 -1583 0z m1697 -167 c279 -90
514 -313 625 -593 107 -271 81 -628 -65 -874 -113 -192 -308 -363 -502 -440
-156 -63 -150 -62 -898 -71 -401 -5 -716 -13 -760 -19 -147 -22 -262 -74 -335
-152 l-45 -48 0 368 c0 418 1 427 75 509 47 52 124 93 212 114 31 7 285 13
743 17 673 6 697 7 757 28 173 58 305 213 358 418 61 238 -46 560 -238 716
-29 24 -56 47 -62 52 -14 13 57 0 135 -25z m-258 -905 c36 -34 37 -81 4 -120
l-24 -28 -326 -3 -326 -3 0 91 0 90 322 0 322 0 28 -27z"/>
<path d="M5530 4653 c-162 -83 -170 -307 -16 -398 60 -35 135 -43 186 -20 22
10 40 20 40 22 0 4 -111 226 -115 231 -2 2 -17 -4 -34 -13 l-31 -15 41 -81
c22 -45 39 -83 36 -85 -6 -6 -68 14 -94 31 -119 78 -58 279 84 279 123 -1 193
-108 144 -220 -18 -40 -20 -53 -10 -76 14 -34 19 -35 47 -5 74 79 68 230 -14
310 -42 43 -81 59 -149 64 -51 4 -68 1 -115 -24z"/>
<path d="M1264 4651 c-50 -23 -71 -51 -136 -188 -34 -70 -47 -108 -40 -111 7
-2 94 -44 193 -93 100 -49 183 -88 184 -87 7 9 25 48 25 55 0 5 -16 17 -35 26
l-35 17 45 90 c25 49 45 96 45 105 0 19 3 19 50 -5 l39 -20 16 29 c8 17 15 32
15 34 0 2 -28 17 -61 32 -35 15 -80 46 -103 70 -61 64 -129 79 -202 46z m125
-75 c28 -15 51 -53 51 -84 0 -26 -77 -182 -90 -182 -13 0 -170 79 -170 85 0
20 84 167 102 179 28 20 70 20 107 2z"/>
<path d="M2060 4320 c-368 -574 -368 -1317 2 -1875 l53 -80 3 115 3 115 -50
105 c-208 439 -208 926 0 1370 l50 104 -3 116 -3 115 -55 -85z"/>
<path d="M5803 4021 c-105 -20 -195 -39 -198 -43 -4 -3 8 -82 25 -175 43 -233
36 -213 73 -206 18 3 34 7 36 9 2 2 -9 67 -23 146 -15 79 -28 149 -29 157 -2
11 29 20 118 37 177 34 156 48 188 -128 16 -84 30 -154 32 -156 2 -2 17 -1 34
3 20 4 31 13 31 23 0 9 -15 96 -33 192 -24 126 -38 175 -48 177 -8 1 -100 -15
-206 -36z"/>
<path d="M1075 4041 c-85 -21 -108 -56 -140 -212 -14 -67 -25 -129 -25 -139 0
-14 34 -24 208 -57 114 -23 208 -40 210 -38 2 1 5 18 9 37 5 35 4 35 -36 42
-23 3 -41 10 -41 14 1 4 7 36 15 72 22 102 19 169 -9 211 -38 55 -123 86 -191
70z m116 -100 c34 -34 35 -47 13 -158 -19 -95 -11 -91 -131 -67 -75 15 -82 19
-78 38 32 162 37 176 62 196 39 31 98 27 134 -9z"/>
<path d="M5847 3932 c-16 -2 -30 -9 -33 -15 -2 -7 6 -66 19 -132 l23 -120 35
3 c19 2 35 5 37 7 3 3 -46 257 -50 259 -2 1 -16 0 -31 -2z"/>
<path d="M5186 3435 c-9 -30 -39 -99 -66 -154 -28 -55 -50 -110 -50 -123 -1
-41 -38 -195 -71 -291 -78 -229 -199 -418 -383 -603 -230 -230 -482 -367 -796
-434 -132 -28 -410 -38 -540 -18 l-85 13 -62 -41 c-33 -23 -67 -44 -75 -46
-23 -9 -5 -16 97 -38 128 -28 420 -38 560 -20 537 67 1011 386 1282 861 89
156 165 372 197 559 20 117 33 375 19 383 -5 3 -17 -18 -27 -48z"/>
<path d="M1103 3133 c-61 -8 -83 -74 -39 -118 20 -20 30 -23 67 -18 24 3 48
10 54 15 6 5 -12 6 -45 2 -63 -7 -82 6 -82 53 0 34 26 53 74 53 21 0 38 5 38
10 0 10 -7 10 -67 3z"/>
<path d="M5946 3098 c-3 -13 -6 -35 -6 -50 0 -35 -5 -37 -65 -28 -47 7 -64 6
-54 -4 2 -3 32 -8 65 -11 l61 -7 8 57 c7 58 2 83 -9 43z"/>
<path d="M1143 2892 c-35 -8 -63 -20 -63 -25 0 -5 6 -7 14 -4 8 3 31 9 51 13
37 7 37 6 25 -17 -7 -13 -26 -43 -42 -67 -17 -24 -28 -45 -26 -47 2 -2 34 4
71 13 38 10 66 20 62 24 -3 3 -28 0 -56 -7 -27 -7 -49 -11 -49 -9 0 3 17 31
38 62 51 75 55 82 45 81 -4 -1 -36 -8 -70 -17z"/>
<path d="M5800 2905 c0 -2 22 -40 50 -82 27 -43 50 -72 50 -65 0 7 -7 23 -15
36 -21 32 -10 76 18 76 33 0 8 16 -45 29 -53 12 -58 13 -58 6z m58 -23 c7 -5
10 -16 6 -26 -6 -15 -7 -15 -20 1 -22 30 -15 43 14 25z"/>
<path d="M5740 2673 c68 -26 120 -40 120 -33 0 10 -93 41 -119 39 -14 0 -14
-1 -1 -6z"/>
<path d="M1198 2652 c-26 -9 -49 -20 -53 -23 -3 -3 4 -32 16 -63 26 -67 38
-68 15 0 -16 47 -14 63 7 65 19 1 94 38 77 37 -8 0 -36 -7 -62 -16z"/>
<path d="M5685 2543 c-20 -47 -29 -83 -21 -83 4 0 11 11 16 25 l9 25 52 -20
c68 -27 77 -16 10 11 -49 21 -52 24 -46 51 9 39 -2 35 -20 -9z"/>
<path d="M1260 2440 c-47 -47 -15 -123 51 -123 63 0 90 72 44 118 -29 30 -68
32 -95 5z m88 -12 c31 -31 3 -98 -40 -98 -49 0 -76 61 -42 94 18 19 65 21 82
4z"/>
<path d="M5614 2362 c3 -5 23 -17 45 -27 22 -10 39 -21 37 -24 -3 -4 -36 -15
-75 -26 -39 -10 -71 -22 -71 -25 0 -8 107 -60 123 -60 6 0 -10 13 -37 29 -26
16 -44 31 -40 33 5 3 39 13 76 23 37 10 65 22 62 27 -7 11 -100 58 -114 58 -6
0 -9 -4 -6 -8z"/>
<path d="M1372 2217 c-43 -46 -17 -118 41 -116 l32 1 -33 9 c-44 13 -61 49
-38 84 36 55 115 15 101 -51 -5 -22 -4 -25 4 -14 30 42 -8 110 -60 110 -14 0
-35 -10 -47 -23z"/>
<path d="M5472 2122 c-18 -29 -32 -56 -32 -60 0 -11 102 -72 111 -67 12 8 61
96 56 101 -3 3 -14 -10 -26 -28 -11 -18 -25 -39 -29 -46 -8 -11 -18 -9 -51 12
-22 15 -41 30 -41 34 0 4 12 24 26 45 14 21 24 43 22 49 -2 6 -19 -12 -36 -40z"/>
<path d="M5516 2090 c-14 -22 -22 -40 -17 -40 11 0 55 69 49 76 -3 2 -17 -14
-32 -36z"/>
<path d="M1512 2018 c-30 -22 -51 -42 -48 -46 3 -3 15 3 25 12 27 24 66 5 57
-27 -4 -12 -9 -35 -12 -52 -4 -25 -2 -23 13 12 24 55 27 57 62 45 17 -6 31 -7
31 -2 0 4 -24 16 -52 26 -29 9 -55 18 -57 20 -2 2 7 12 20 23 46 37 13 28 -39
-11z"/>
<path d="M5338 1932 c-36 -46 -43 -78 -9 -35 l18 21 43 -34 c23 -19 48 -34 54
-34 9 0 -17 25 -72 66 -12 9 -12 15 -2 33 21 40 5 32 -32 -17z"/>
<path d="M1655 1825 c-28 -24 -45 -44 -40 -44 6 0 33 20 60 44 28 25 45 45 40
45 -6 0 -33 -20 -60 -45z"/>
<path d="M5213 1788 c-35 -17 -48 -60 -29 -96 35 -68 136 -41 136 36 0 47 -63
82 -107 60z m71 -24 c19 -18 21 -65 4 -82 -31 -31 -98 -3 -98 40 0 49 61 76
94 42z"/>
<path d="M1747 1742 c-57 -58 -63 -82 -7 -27 l40 39 0 -84 0 -84 50 49 c28 27
50 54 50 59 0 6 -17 -7 -38 -27 -21 -20 -41 -37 -46 -37 -4 0 -5 36 -1 80 4
44 5 80 3 80 -2 0 -25 -22 -51 -48z"/>
<path d="M5021 1604 c-17 -14 -31 -31 -31 -37 0 -11 76 -97 85 -97 2 0 2 7 -2
16 -4 10 6 26 26 44 35 33 38 46 15 78 -20 29 -55 28 -93 -4z m77 4 c19 -19
14 -39 -15 -70 l-27 -28 -23 22 c-30 28 -29 42 5 67 31 24 43 26 60 9z"/>
<path d="M1927 1580 c-37 -29 -37 -80 -1 -109 31 -24 53 -26 78 -8 17 13 16
15 -15 40 -18 14 -36 24 -39 21 -3 -3 5 -14 18 -24 28 -23 28 -30 -1 -30 -49
0 -74 61 -39 93 39 36 95 13 95 -38 0 -14 3 -25 8 -25 16 0 10 47 -8 68 -27
32 -64 37 -96 12z"/>
<path d="M4726 1389 c-52 -41 -21 -119 47 -119 42 0 67 26 67 68 0 18 -2 32
-6 32 -3 0 -22 -11 -42 -25 -20 -14 -31 -25 -24 -25 7 0 24 7 37 16 23 15 25
15 25 0 0 -22 -36 -56 -58 -56 -29 0 -54 25 -54 53 0 38 20 59 56 57 46 -3 53
-1 36 10 -24 16 -55 12 -84 -11z"/>
<path d="M2256 1357 c5 -35 2 -53 -10 -71 -18 -28 -20 -36 -8 -36 4 0 14 13
23 29 11 18 33 35 60 45 35 13 38 15 13 12 -16 -3 -37 -6 -45 -8 -9 -2 -15 7
-17 27 -2 17 -8 34 -13 40 -6 6 -7 -9 -3 -38z"/>
<path d="M4580 1302 c0 -7 9 -31 20 -52 11 -22 16 -40 10 -40 -5 0 -39 11 -76
25 -36 14 -68 25 -70 25 -2 0 11 -29 28 -65 18 -36 36 -65 40 -65 5 0 -3 23
-17 50 -14 28 -21 50 -16 50 5 0 39 -11 75 -25 37 -14 68 -25 71 -25 6 0 -45
113 -56 125 -6 5 -9 4 -9 -3z"/>
<path d="M2410 1260 c-11 -11 -20 -33 -20 -50 0 -17 9 -39 20 -50 43 -43 120
-11 120 50 0 38 -32 70 -70 70 -17 0 -39 -9 -50 -20z m90 -10 c11 -11 20 -29
20 -40 0 -25 -34 -60 -59 -60 -19 0 -61 43 -61 62 0 15 48 58 65 58 8 0 24 -9
35 -20z"/>
<path d="M4360 1205 c0 -19 45 -125 54 -125 4 0 6 6 3 13 -3 6 -13 32 -22 57
-18 45 -35 72 -35 55z"/>
<path d="M2630 1155 c-7 -24 -10 -55 -6 -68 7 -29 55 -52 86 -42 23 7 65 87
57 108 -3 7 -8 4 -12 -8 -32 -83 -33 -85 -64 -85 -32 0 -61 22 -61 46 0 8 7
31 15 51 18 41 18 43 6 43 -4 0 -14 -20 -21 -45z"/>
<path d="M4250 1162 c0 -5 6 -30 14 -55 8 -26 13 -47 11 -47 -2 0 -34 18 -72
39 -37 21 -70 37 -72 36 -1 -2 7 -34 19 -70 24 -72 38 -83 20 -15 -6 23 -9 44
-6 47 2 3 34 -12 70 -32 36 -20 66 -33 66 -28 0 14 -41 133 -46 133 -2 0 -4
-4 -4 -8z"/>
<path d="M2856 1064 c-19 -76 -19 -84 -2 -62 10 14 19 16 49 7 20 -5 37 -17
40 -27 3 -15 5 -15 11 3 4 11 12 28 17 37 15 28 10 67 -8 77 -10 5 -34 13 -55
19 l-36 10 -16 -64z m97 24 c9 -5 17 -17 17 -27 0 -30 -26 -44 -65 -37 -36 7
-41 18 -29 63 5 19 11 22 33 17 14 -4 34 -11 44 -16z"/>
<path d="M3932 1083 c-14 -3 -22 -10 -19 -18 3 -7 9 -33 12 -59 7 -43 25 -75
25 -44 0 8 17 19 39 24 32 9 40 8 48 -5 8 -12 10 -5 10 29 1 72 -28 90 -115
73z m92 -25 c15 -25 -3 -50 -43 -61 -18 -4 -35 -7 -36 -5 -2 2 -6 20 -10 40
-6 33 -5 37 17 41 38 8 60 3 72 -15z"/>
<path d="M3226 1048 c-3 -7 -7 -39 -10 -70 l-6 -58 27 0 c16 0 45 -3 66 -6 23
-4 37 -3 37 4 0 6 -23 12 -52 14 l-53 3 2 63 c3 58 -2 79 -11 50z"/>
<path d="M3748 988 c-31 -40 -55 -75 -52 -78 3 -3 15 7 26 23 24 33 83 39 91
10 7 -28 5 58 -2 90 -6 27 -7 26 -63 -45z m52 12 c0 -14 -7 -20 -22 -20 -20 0
-21 1 -3 20 10 11 20 20 22 20 1 0 3 -9 3 -20z"/>
<path d="M3450 975 l0 -65 68 2 67 2 -57 3 -58 4 0 54 0 54 58 4 57 3 -67 2
-68 2 0 -65z"/>
<path d="M3480 980 c0 -5 20 -10 45 -10 25 0 45 5 45 10 0 6 -20 10 -45 10
-25 0 -45 -4 -45 -10z"/>
</g>
</svg>
